HIERARCHY
ROOT Hips
{
	OFFSET 0.000000 0.000000 0.000000
	CHANNELS 6 Xposition Yposition Zposition Zrotation Yrotation Xrotation 
	JOINT LHipJoint
	{
		OFFSET 0.000000 0.000000 0.000000
		CHANNELS 3 Zrotation Yrotation Xrotation
		JOINT LeftUpLeg
		{
			OFFSET 1.363060 -1.794630 0.839290
			CHANNELS 3 Zrotation Yrotation Xrotation
			JOINT LeftLeg
			{
				OFFSET 2.448110 -6.726130 0.000000
				CHANNELS 3 Zrotation Yrotation Xrotation
				JOINT LeftFoot
				{
					OFFSET 2.562200 -7.039590 0.000000
					CHANNELS 3 Zrotation Yrotation Xrotation
					JOINT LeftToeBase
					{
						OFFSET 0.157640 -0.433110 2.322550
						CHANNELS 3 Zrotation Yrotation Xrotation
						End Site
						{
							OFFSET 0.000000 0.000000 0.000000
						}
					}
				}
			}
		}
	}
	JOINT RHipJoint
	{
		OFFSET 0.000000 0.000000 0.000000
		CHANNELS 3 Zrotation Yrotation Xrotation
		JOINT RightUpLeg
		{
			OFFSET -1.305520 -1.794630 0.839290
			CHANNELS 3 Zrotation Yrotation Xrotation
			JOINT RightLeg
			{
				OFFSET -2.542530 -6.985550 0.000000
				CHANNELS 3 Zrotation Yrotation Xrotation
				JOINT RightFoot
				{
					OFFSET -2.568260 -7.056230 0.000000
					CHANNELS 3 Zrotation Yrotation Xrotation
					JOINT RightToeBase
					{
						OFFSET -0.164730 -0.452590 2.363150
						CHANNELS 3 Zrotation Yrotation Xrotation
						End Site
						{
							OFFSET 0.000000 0.000000 0.000000
						}
					}
				}
			}
		}
	}
	JOINT LowerBack
	{
		OFFSET 0.000000 0.000000 0.000000
		CHANNELS 3 Zrotation Yrotation Xrotation
		JOINT Spine
		{
			OFFSET 0.028270 2.035590 -0.193380
			CHANNELS 3 Zrotation Yrotation Xrotation
			JOINT Spine1
			{
				OFFSET 0.056720 2.048850 -0.042750
				CHANNELS 3 Zrotation Yrotation Xrotation
				JOINT Neck
				{
					OFFSET 0.000000 0.000000 0.000000
					CHANNELS 3 Zrotation Yrotation Xrotation
					JOINT Neck1
					{
						OFFSET -0.054170 1.746240 0.172020
						CHANNELS 3 Zrotation Yrotation Xrotation
						JOINT Head
						{
							OFFSET 0.104070 1.761360 -0.123970
							CHANNELS 3 Zrotation Yrotation Xrotation
							End Site
							{
								OFFSET 0.000000 0.000000 0.000000
							}
						}
					}
				}
				JOINT LeftShoulder
				{
					OFFSET 0.000000 0.000000 0.000000
					CHANNELS 3 Zrotation Yrotation Xrotation
					JOINT LeftArm
					{
						OFFSET 3.362410 1.200890 -0.311210
						CHANNELS 3 Zrotation Yrotation Xrotation
						JOINT LeftForeArm
						{
							OFFSET 4.983000 -0.000000 -0.000000
							CHANNELS 3 Zrotation Yrotation Xrotation
							JOINT LeftHand
							{
								OFFSET 3.483560 -0.000000 -0.000000
								CHANNELS 3 Zrotation Yrotation Xrotation
								JOINT LeftFingerBase
								{
									OFFSET 0.000000 0.000000 0.000000
									CHANNELS 3 Zrotation Yrotation Xrotation
									JOINT LeftHandIndex1
									{
										OFFSET 0.715260 -0.000000 -0.000000
										CHANNELS 3 Zrotation Yrotation Xrotation
										End Site
										{
											OFFSET 0.000000 0.000000 0.000000
										}
									}
								}
								JOINT LThumb
								{
									OFFSET 0.000000 0.000000 0.000000
									CHANNELS 3 Zrotation Yrotation Xrotation
									End Site
									{
										OFFSET 0.000000 0.000000 0.000000
									}
								}
							}
						}
					}
				}
				JOINT RightShoulder
				{
					OFFSET 0.000000 0.000000 0.000000
					CHANNELS 3 Zrotation Yrotation Xrotation
					JOINT RightArm
					{
						OFFSET -3.136600 1.374050 -0.404650
						CHANNELS 3 Zrotation Yrotation Xrotation
						JOINT RightForeArm
						{
							OFFSET -5.241900 -0.000000 -0.000000
							CHANNELS 3 Zrotation Yrotation Xrotation
							JOINT RightHand
							{
								OFFSET -3.444170 -0.000000 -0.000000
								CHANNELS 3 Zrotation Yrotation Xrotation
								JOINT RightFingerBase
								{
									OFFSET 0.000000 0.000000 0.000000
									CHANNELS 3 Zrotation Yrotation Xrotation
									JOINT RightHandIndex1
									{
										OFFSET -0.622530 -0.000000 -0.000000
										CHANNELS 3 Zrotation Yrotation Xrotation
										End Site
										{
											OFFSET 0.000000 0.000000 0.000000
										}
									}
								}
								JOINT RThumb
								{
									OFFSET 0.000000 0.000000 0.000000
									CHANNELS 3 Zrotation Yrotation Xrotation
									End Site
									{
										OFFSET 0.000000 0.000000 0.000000
									}
								}
							}
						}
					}
				}
			}
		}
	}
}
MOTION
Frames: 4
Frame Time: 0.008333
4.007436 17.029991 0.938036 3.264367 30.852746 14.973355 -12.400670 3.677495 -2.997533 -0.938183 20.554411 -6.100997 -0.978140 1.820900 28.783253 1.316694 7.603527 14.245775 2.284900 0.000000 -81.516900 8.202592 -0.077002 0.486635 15.749074 -6.701591 -32.185108 2.652719 1.445730 3.132115 -3.576060 -17.274250 -0.649591 -4.100000 0.000000 -27.279400 6.441820 -3.981106 4.173725 0.489722 -4.265205 -1.364127 -7.003840 -4.238235 3.007509 12.834063 -10.712305 -7.548428 -3.227828 -0.234345 -0.092141 0.000000 0.000000 0.000000 0.068199 8.617864 3.470900 -19.897186 -16.637545 -7.169273 -2.227508 -55.310956 0.043975 -15.136068 2.495719 -0.310676 0.035246 0.158831 -0.000000 0.000000 0.000000 0.000000 0.000000 0.000000 0.000000 19.010500 -10.558362 0.515394 63.756828 -7.491684 -19.672699 4.461141 17.990542 0.007629 10.401115 2.800708 0.255311 0.071307 -0.020675 0.000000 0.000000 0.000000 0.000000 0.000000 0.000000 0.000000 
4.059991 17.044409 1.058361 2.976401 30.398301 14.744230 -12.572720 3.633611 -2.921846 -0.385509 20.400659 -6.657525 -0.826842 1.921375 30.427303 1.414308 7.561780 16.067729 2.399599 0.000000 -81.434800 8.047263 -0.198866 0.387446 16.235899 -6.749487 -31.957615 2.732213 1.350652 3.941975 -3.487374 -16.864598 -0.755931 -3.961600 0.000000 -26.949300 6.933319 -3.911588 4.208949 0.585868 -4.215223 -1.376280 -7.007963 -4.190698 2.965765 12.767175 -10.538231 -7.490396 -3.258552 -0.237149 -0.078085 0.000000 0.000000 0.000000 -0.071706 8.647239 3.429677 -20.854690 -16.344184 -6.378576 -2.213260 -56.141476 0.043230 -15.222010 2.441483 -0.305669 0.033868 0.155405 0.000000 0.000000 0.000000 0.000000 0.000000 0.000000 0.000000 18.962780 -10.345848 0.536329 63.680269 -6.940309 -19.649590 4.465947 17.951293 0.007736 10.441981 2.790714 0.255514 0.070775 -0.021371 -0.000000 0.000000 0.000000 0.000000 0.000000 0.000000 0.000000 
4.107146 17.059861 1.177712 2.738649 29.910875 14.539206 -12.710730 3.576083 -2.859189 0.077806 20.213266 -7.255649 -0.683323 2.015634 32.140893 1.528061 7.575273 17.957214 2.534900 0.000000 -80.583400 7.917912 -0.303582 0.287969 16.654292 -6.781123 -31.691397 2.800676 1.259456 4.728279 -3.397200 -16.395021 -1.007105 -3.764800 -0.000000 -26.483300 7.324227 -3.838056 4.260873 0.659852 -4.155880 -1.384526 -7.013019 -4.133473 2.919466 12.731779 -10.338625 -7.416990 -3.286945 -0.239876 -0.060430 0.000000 0.000000 0.000000 -0.135898 8.636519 3.391267 -21.819313 -16.000458 -5.527423 -2.202090 -56.885317 0.042299 -15.316865 2.391571 -0.301366 0.032778 0.151202 -0.000000 0.000000 0.000000 0.000000 0.000000 0.000000 0.000000 18.935834 -10.104549 0.559515 63.624832 -6.354419 -19.531848 4.467153 17.947529 0.007824 10.489117 2.775852 0.255417 0.070012 -0.022037 0.000000 0.000000 0.000000 0.000000 0.000000 0.000000 0.000000 
4.148888 17.075857 1.296161 2.555999 29.397112 14.363485 -12.813218 3.506281 -2.809334 0.444152 19.989258 -7.894167 -0.552886 2.103401 33.912689 1.651583 7.633528 19.839120 2.686299 -0.000000 -78.901300 7.816425 -0.389414 0.194835 16.990319 -6.779542 -31.375507 2.854952 1.177508 5.454803 -3.312265 -15.905106 -1.380519 -3.529700 0.000000 -25.874500 7.610620 -3.762130 4.321952 0.711110 -4.089067 -1.389769 -7.019467 -4.068366 2.871127 12.727853 -10.121874 -7.330907 -3.312587 -0.242473 -0.039737 0.000000 0.000000 0.000000 -0.134429 8.593875 3.356257 -22.762889 -15.619914 -4.617120 -2.193943 -57.532539 0.041160 -15.415805 2.349860 -0.298368 0.031900 0.146197 0.000000 0.000000 0.000000 0.000000 0.000000 0.000000 0.000000 18.931713 -9.843851 0.583400 63.588012 -5.735435 -19.296498 4.465156 17.994708 0.007896 10.544606 2.759439 0.255320 0.069002 -0.022654 0.000000 0.000000 0.000000 0.000000 0.000000 0.000000 0.000000 
